<svg width="57" height="52" viewBox="0 0 57 52" fill="none" xmlns="http://www.w3.org/2000/svg">
<path d="M56.0183 10.8205C56.0149 10.6994 55.9871 10.5802 55.9365 10.4695C55.9394 10.4507 55.9394 10.4317 55.9365 10.4129C55.8844 10.2976 55.8089 10.1936 55.7145 10.1072L55.6211 10.0279C55.5406 9.974 55.4544 9.92846 55.3641 9.89207L28.494 0.00808112C28.4239 0.00808112 28.3655 0.00808112 28.3071 0.00808112H28.0851C27.9959 -0.0026937 27.9056 -0.0026937 27.8164 0.00808112C27.7659 0.00265953 27.715 0.00265953 27.6645 0.00808112L0.71266 9.89207C0.624818 9.92619 0.542235 9.97191 0.467299 10.0279C0.430115 10.0516 0.394958 10.0781 0.362159 10.1072H0.30376C0.212804 10.1965 0.13779 10.2998 0.081787 10.4129C0.081787 10.4129 0.081787 10.4129 0.081787 10.4695C0.0380729 10.5784 0.0105299 10.6927 0 10.8091C0 10.8091 0 10.8091 0 10.8091V40.9141C0.000102153 41.1467 0.0741674 41.3738 0.212133 41.5642C0.350098 41.7546 0.545268 41.8992 0.771059 41.9783L4.21745 43.2011C4.51025 43.3032 4.8329 43.2884 5.11444 43.1599C5.39597 43.0315 5.61333 42.7998 5.71868 42.5161C5.82402 42.2323 5.80873 41.9197 5.67618 41.6468C5.54363 41.374 5.30466 41.1633 5.01186 41.0613L2.33653 40.1215V12.4622L26.8701 21.0894V48.7488L13.7271 44.1295C13.5818 44.074 13.4264 44.0473 13.2703 44.051C13.1141 44.0547 12.9604 44.0887 12.818 44.151C12.6756 44.2133 12.5476 44.3026 12.4415 44.4137C12.3354 44.5248 12.2533 44.6554 12.2002 44.7977C12.1471 44.9401 12.124 45.0913 12.1322 45.2425C12.1404 45.3937 12.1798 45.5417 12.2481 45.6778C12.3164 45.814 12.4122 45.9355 12.5298 46.0351C12.6474 46.1348 12.7844 46.2105 12.9327 46.258L27.6411 51.4321C27.7685 51.4769 27.9029 51.4998 28.0383 51.5H28.1435C28.2789 51.4998 28.4133 51.4769 28.5407 51.4321L55.4108 41.9783C55.6366 41.8992 55.8317 41.7546 55.9697 41.5642C56.1077 41.3738 56.1817 41.1467 56.1818 40.9141V10.8205H56.0183ZM37.5947 15.7229L14.101 7.27671L19.5801 5.26145L42.5832 13.968L37.5947 15.7229ZM45.9011 12.7905L22.8396 4.07267L28.0033 2.18186L51.5555 10.8205L45.9011 12.7905ZM4.41604 10.8318L10.7831 8.48816L34.1484 16.9116L27.9098 19.1081L4.41604 10.8318ZM53.6818 40.1215L29.0664 48.8394V21.1348L36.4031 18.5533V36.3853C36.4026 36.564 36.4458 36.7402 36.529 36.8996C36.6123 37.059 36.7333 37.197 36.8821 37.3024C37.0826 37.443 37.3239 37.5184 37.5714 37.5175C37.6875 37.5346 37.8057 37.5346 37.9218 37.5175L46.8124 34.8116C47.0488 34.7395 47.2554 34.5965 47.4024 34.4031C47.5494 34.2098 47.6292 33.9761 47.6302 33.736V29.5922C47.6302 29.2919 47.507 29.0039 47.288 28.7916C47.0689 28.5793 46.7717 28.46 46.4619 28.46C46.152 28.46 45.8549 28.5793 45.6358 28.7916C45.4167 29.0039 45.2936 29.2919 45.2936 29.5922V32.8529L38.7046 34.8002V17.7269L45.2585 15.4625V21.497C45.2585 21.7973 45.3816 22.0853 45.6007 22.2976C45.8198 22.51 46.117 22.6292 46.4268 22.6292C46.7366 22.6292 47.0338 22.51 47.2529 22.2976C47.472 22.0853 47.5951 21.7973 47.5951 21.497V14.7039L53.6467 12.5641L53.6818 40.1215Z" fill="#241F20"/>
</svg>
