<svg width="119" height="44" xmlns="http://www.w3.org/2000/svg" xmlns:xlink="http://www.w3.org/1999/xlink"><defs><path id="iuyk7a" d="M25.955 36H.21V.449h25.744V36z"/></defs><g fill="none" fill-rule="evenodd"><path d="M40.72 9C37.972 9 29 9.877 29 21.159 29 29.899 35.168 33 40.45 33c5.689 0 9.175-2.934 10.36-8.719l.075-.356-1.258-.433-.161.325c-1.383 2.785-3.345 4.138-5.997 4.138-3.688 0-5.931-2.822-6.028-7.561h13.48l.032-.38c.047-.561.047-.89.047-1.032C51 9.72 43.132 9 40.72 9m-.09 1.69c1.312 0 2.653.845 2.653 7.113 0 .152 0 .52-.02.946h-5.818c.121-5.571 1.107-8.06 3.186-8.06M63.721 9C60.971 9 52 9.877 52 21.159 52 29.899 58.169 33 63.451 33c5.688 0 9.174-2.934 10.36-8.719l.073-.356-1.395-.487-.162.326c-1.42 2.86-3.281 4.19-5.857 4.19-3.69 0-5.932-2.82-6.029-7.56h13.482l.03-.38c.047-.561.047-.89.047-1.032C74 9.72 66.132 9 63.721 9m-.09 1.69c1.311 0 2.652.845 2.652 7.113 0 .152 0 .52-.02.946h-5.818c.122-5.571 1.107-8.06 3.186-8.06" fill="#FF4646"/><g transform="translate(73 8)"><mask id="exi5mb" fill="#fff"><use xlink:href="#iuyk7a"/></mask><path d="M17.21.449c-2.763 0-4.926 1.314-6.439 3.907V.816H.211v.681l2.264 2.399c.195.227.193.271.18.56a6.514 6.514 0 0 0-.008.308v30.75l.73.486 7.407-3.164-.012-10.426c1.127 1.507 2.985 2.298 5.423 2.298 5.746 0 9.76-5.185 9.76-12.61 0-6.969-3.515-11.65-8.745-11.65m.303 12.015c0 4.036-1.12 8.749-4.276 8.749-.973 0-1.887-.335-2.466-.901V6.818c.805-1.203 1.836-1.865 2.908-1.865 3.168 0 3.834 4.085 3.834 7.511" fill="#FF4646" mask="url(#exi5mb)"/></g><path d="m113.839 18.421-2.835-1.268c-2.598-1.173-3.835-2.033-3.835-3.749 0-2.037 1.716-2.76 3.184-2.76h.621c.392 0 .423.054.666.469l3.572 6.514h.604l2.737-7.254-.414-.13A26.674 26.674 0 0 0 110.22 9c-5.764 0-9.488 2.975-9.488 7.579 0 3.024 1.566 5.38 4.53 6.814l3.016 1.452c2.856 1.349 4.019 2.053 4.019 3.614 0 1.76-1.477 2.897-3.76 2.897h-1.02c-.293 0-.437-.092-.57-.366l-3.66-7.253h-.62L100 31.433l.383.137c2.455.882 5.63 1.43 8.287 1.43 6.372 0 10.33-3.043 10.33-7.941 0-3.812-2.48-5.443-5.161-6.638m-96.526-7.182S28.245.718 28.146.78l.099-.063V0H15.29v.629l4.494 4.626c.324.456.324.456.031.777l-8.044 7.72V0H0v.67l2.713 2.906c.263.265.278.28.278.778V32h8.78V18.6l7.953 13.205.118.195H31v-.666l-2.684-2.609c-.387-.397-6.759-10.62-11.003-17.486" fill="#FF4646"/></g></svg>