<svg width="42" height="42" viewBox="0 0 42 42" fill="none" xmlns="http://www.w3.org/2000/svg">
<path d="M24.3381 5.52637L27.3772 2.38474C28.5145 1.20081 30.09 0.883848 30.901 1.6576L34.0426 4.69668L4.85444 34.929L1.70349 31.8899C0.892444 31.1068 1.1628 29.522 2.30013 28.3474L19.5651 10.5697" stroke="#241F20" stroke-width="1.5" stroke-linecap="round" stroke-linejoin="round"/>
<path d="M10.8953 40.7647L4.85443 34.929" stroke="#241F20" stroke-width="1.5" stroke-linecap="round" stroke-linejoin="round"/>
<path d="M13.8225 37.7443L7.77234 31.8992" stroke="#241F20" stroke-width="1.5" stroke-linecap="round" stroke-linejoin="round"/>
<path d="M16.7403 34.7144L10.6901 28.8787" stroke="#241F20" stroke-width="1.5" stroke-linecap="round" stroke-linejoin="round"/>
<path d="M19.6582 31.6939L13.608 25.8582" stroke="#241F20" stroke-width="1.5" stroke-linecap="round" stroke-linejoin="round"/>
<path d="M22.5762 28.6737L16.5353 22.8379" stroke="#241F20" stroke-width="1.5" stroke-linecap="round" stroke-linejoin="round"/>
<path d="M25.494 25.6532L19.4531 19.8081" stroke="#241F20" stroke-width="1.5" stroke-linecap="round" stroke-linejoin="round"/>
<path d="M28.4119 22.6235L22.371 16.7877" stroke="#241F20" stroke-width="1.5" stroke-linecap="round" stroke-linejoin="round"/>
<path d="M31.3298 19.603L25.2889 13.7672" stroke="#241F20" stroke-width="1.5" stroke-linecap="round" stroke-linejoin="round"/>
<path d="M34.2571 16.5826L28.2069 10.7468" stroke="#241F20" stroke-width="1.5" stroke-linecap="round" stroke-linejoin="round"/>
<path d="M37.175 13.5621L31.1248 7.71704" stroke="#241F20" stroke-width="1.5" stroke-linecap="round" stroke-linejoin="round"/>
<path d="M40.0929 10.5323L34.0427 4.69653" stroke="#241F20" stroke-width="1.5" stroke-linecap="round" stroke-linejoin="round"/>
</svg>
