<svg width="35" height="43" viewBox="0 0 35 43" fill="none" xmlns="http://www.w3.org/2000/svg">
<path d="M34.6262 10.8024C34.5369 10.2282 34.2868 9.69176 33.9053 9.25619C33.5237 8.82062 33.0267 8.50411 32.4727 8.34396C31.2537 7.97519 30.0348 7.52447 28.8646 7.07376C28.7653 7.03384 28.6593 7.01405 28.5524 7.01551C28.4456 7.01698 28.3401 7.03967 28.242 7.0823C28.1439 7.12492 28.055 7.18664 27.9806 7.26392C27.9062 7.3412 27.8476 7.43253 27.8081 7.53267C27.7686 7.63274 27.7489 7.73971 27.7504 7.84744C27.7518 7.95517 27.7743 8.06155 27.8166 8.1605C27.8589 8.25945 27.9201 8.34902 27.9967 8.42409C28.0734 8.49916 28.1639 8.55826 28.2632 8.59799C29.4822 9.08968 30.7418 9.5322 32.0095 9.90916C32.2688 9.98291 32.5016 10.1303 32.6803 10.3337C32.8589 10.5371 32.9759 10.7879 33.0171 11.0564C33.2596 12.5574 33.3819 14.0756 33.3828 15.5964C33.3716 17.8659 33.0989 20.1264 32.5702 22.3325C32.0295 24.3581 31.3284 26.3367 30.4736 28.2491C29.9179 29.3497 29.2992 30.4169 28.6208 31.4451C28.1901 32.1089 27.7188 32.7645 27.2393 33.3873C26.5665 34.2458 25.8476 35.0665 25.0858 35.8457C23.039 37.9769 20.6757 39.774 18.0809 41.1723C17.8907 41.2695 17.6805 41.3202 17.4674 41.3202C17.2542 41.3202 17.044 41.2695 16.8538 41.1723C12.2401 38.7095 8.38013 35.024 5.68949 30.5129C2.99886 26.0018 1.57953 20.836 1.58439 15.5718C1.58661 14.0514 1.70616 12.5335 1.94195 11.0319C1.98603 10.7645 2.10394 10.515 2.28217 10.3121C2.46039 10.1092 2.69173 9.961 2.94963 9.88458C7.91915 8.41882 12.5777 6.04074 16.6913 2.86983C16.9243 2.68908 17.21 2.59107 17.5039 2.59107C17.7979 2.59107 18.0836 2.68908 18.3166 2.86983C19.8098 4.02081 21.3761 5.07198 23.0055 6.01663C23.098 6.07592 23.2014 6.11574 23.3095 6.13367C23.4177 6.15161 23.5283 6.1473 23.6348 6.12101C23.7412 6.09471 23.8413 6.04697 23.929 5.98067C24.0167 5.91436 24.0901 5.83085 24.145 5.73516C24.1998 5.63948 24.2349 5.53359 24.2481 5.42387C24.2613 5.31416 24.2524 5.20288 24.2219 5.09673C24.1914 4.99059 24.1398 4.89177 24.0704 4.80622C24.001 4.72067 23.9152 4.65016 23.8181 4.59893C22.2501 3.68957 20.7434 2.67667 19.308 1.56685C18.7909 1.16877 18.1585 0.953125 17.508 0.953125C16.8575 0.953125 16.225 1.16877 15.708 1.56685C11.7669 4.62033 7.30131 6.91497 2.53517 8.33576C1.98021 8.4941 1.48213 8.81007 1.1003 9.24597C0.718475 9.68186 0.469022 10.2193 0.381694 10.7942C-0.6196 17.0959 0.360792 23.5557 3.18528 29.2669C6.00978 34.9782 10.5366 39.6543 16.1306 42.6392C16.5536 42.8652 17.0252 42.9834 17.5039 42.9834C17.9827 42.9834 18.4542 42.8652 18.8773 42.6392C21.6262 41.1673 24.1296 39.2705 26.2966 37.0176C27.0945 36.1837 27.8485 35.3084 28.5558 34.3952C29.0677 33.7397 29.5553 33.0513 30.0185 32.3547C30.7316 31.2719 31.3801 30.1472 31.9607 28.9867C32.8735 26.9683 33.6183 24.8769 34.1873 22.734C34.7304 20.3944 35.0031 17.9992 35 15.5964C35 13.991 34.875 12.3881 34.6262 10.8024Z" fill="#231E20"/>
<path d="M24.0204 18.1201L16.7067 26.8803L13.0092 23.1599C12.8573 23.0056 12.6508 22.9184 12.4351 22.9177C12.2195 22.9169 12.0124 23.0025 11.8593 23.1558C11.7063 23.309 11.6199 23.5172 11.6191 23.7347C11.6184 23.9522 11.7033 24.161 11.8553 24.3153L16.8042 29.2978L25.2963 19.1854C25.4363 19.0191 25.5052 18.8035 25.4877 18.5861C25.4701 18.3686 25.3677 18.1671 25.2028 18.0258C25.0379 17.8845 24.8242 17.8151 24.6085 17.8328C24.3929 17.8505 24.193 17.9538 24.0529 18.1201H24.0204Z" fill="#231E20"/>
<path d="M29.8314 20.0224H29.9208C30.1217 20.0236 30.3159 19.9497 30.4659 19.815C30.616 19.6804 30.7113 19.4944 30.7334 19.293C30.8971 17.1546 30.8971 15.0067 30.7334 12.8683C30.7195 12.6967 30.6523 12.5339 30.5414 12.403C30.4306 12.2721 30.2817 12.1797 30.1158 12.139C22.2657 10.2296 18.17 6.23051 18.1294 6.18953C17.9507 6.04172 17.7267 5.96094 17.4956 5.96094C17.2644 5.96094 17.0404 6.04172 16.8617 6.18953C16.8211 6.18953 12.7254 10.2296 4.87532 12.139C4.70945 12.1797 4.56053 12.2721 4.44967 12.403C4.33881 12.5339 4.27165 12.6967 4.25772 12.8683C4.09028 14.9954 4.08484 17.1323 4.24146 19.2602C4.26356 19.4616 4.35883 19.6476 4.5089 19.7823C4.65897 19.917 4.8532 19.9908 5.0541 19.9896H5.15161C5.25786 19.9774 5.36069 19.9441 5.45418 19.8918C5.54767 19.8394 5.62999 19.769 5.69642 19.6845C5.76286 19.6 5.8121 19.5031 5.84133 19.3993C5.87055 19.2956 5.87918 19.1871 5.86673 19.08C5.7335 17.2386 5.7335 15.3898 5.86673 13.5485C10.1238 12.5283 14.1036 10.5692 17.5199 7.8121C20.9362 10.5692 24.9161 12.5283 29.1731 13.5485C29.3064 15.3898 29.3064 17.2386 29.1731 19.08C29.1377 19.2928 29.1869 19.5112 29.3102 19.6876C29.4334 19.864 29.6207 19.9843 29.8314 20.0224Z" fill="#231E20"/>
</svg>
