<svg width="45" height="20" viewBox="0 0 45 20" fill="none" xmlns="http://www.w3.org/2000/svg">
<path d="M26.0206 6.06305C26.0093 5.60603 25.8214 5.17158 25.4969 4.85243C25.1725 4.53328 24.7372 4.35469 24.2841 4.35483H24.1719V1.43482C24.1719 1.33802 24.1338 1.24521 24.066 1.17676C23.9981 1.10831 23.9061 1.06982 23.8102 1.06982H22.1459C22.0563 1.07006 21.9699 1.10388 21.9036 1.16473L20.887 2.09184C20.849 2.12638 20.8188 2.16861 20.7982 2.2158C20.7776 2.26298 20.7672 2.31405 20.7676 2.36559V4.35848H20.6518C20.1989 4.35927 19.7642 4.53815 19.44 4.85711C19.1157 5.17606 18.9275 5.60998 18.9152 6.06671C18.7524 6.79671 16.8893 15.4618 18.984 18.1117C19.1788 18.3706 19.4313 18.5795 19.7211 18.7215C20.0109 18.8636 20.3297 18.9347 20.6518 18.9293H24.2696C24.608 18.9366 24.9432 18.8627 25.2477 18.7135C25.5521 18.5644 25.8171 18.3444 26.0206 18.0716C28.1407 15.3742 26.1979 6.8113 26.0206 6.06305ZM25.4671 17.6153C25.3306 17.8008 25.1518 17.9504 24.9459 18.0514C24.74 18.1524 24.513 18.2019 24.2841 18.1957H20.6663C20.4558 18.1972 20.2478 18.1489 20.0593 18.0544C19.8708 17.9599 19.7069 17.822 19.5809 17.6518C18.7995 16.6627 18.5607 14.3668 18.8935 11.0599C19.0609 9.42251 19.3181 7.79577 19.6641 6.18714C19.6661 6.16041 19.6661 6.13358 19.6641 6.10685C19.6651 5.8361 19.7721 5.57673 19.9619 5.38527C20.1516 5.19382 20.4087 5.08579 20.6771 5.08483H22.2473C22.3432 5.08483 22.4352 5.04639 22.5031 4.97794C22.5709 4.90949 22.609 4.81664 22.609 4.71983C22.609 4.62303 22.5709 4.53022 22.5031 4.46176C22.4352 4.39331 22.3432 4.35483 22.2473 4.35483H21.5237V2.52983L22.3196 1.79983H23.4809V4.51911C23.4831 4.54661 23.4892 4.57364 23.499 4.5994C23.4835 4.63896 23.4749 4.68094 23.4737 4.72348C23.4737 4.82029 23.5118 4.91315 23.5796 4.9816C23.6475 5.05005 23.7395 5.08849 23.8355 5.08849H24.3166C24.5856 5.08848 24.8437 5.19607 25.0342 5.38763C25.2248 5.57919 25.3323 5.83912 25.3332 6.1105C25.3298 6.1396 25.3298 6.16901 25.3332 6.1981C25.695 7.79214 25.9667 9.4056 26.1472 11.0307C26.4801 14.3303 26.2413 16.6079 25.4671 17.6153Z" fill="#241F20"/>
<path d="M24.7364 12.8521C24.6404 12.8521 24.5484 12.8905 24.4805 12.959C24.4127 13.0274 24.3746 13.1202 24.3746 13.2171C24.4288 14.5311 24.2262 16.0787 23.8464 16.294H20.9521C20.8562 16.294 20.7641 16.3325 20.6963 16.4009C20.6285 16.4694 20.5903 16.5622 20.5903 16.659C20.5903 16.7558 20.6285 16.8486 20.6963 16.9171C20.7641 16.9855 20.8562 17.024 20.9521 17.024H23.9042C23.9414 17.0296 23.9792 17.0296 24.0164 17.024C25.1415 16.659 25.1017 14.0055 25.08 13.1988C25.0756 13.1083 25.038 13.0226 24.9745 12.9585C24.911 12.8944 24.8261 12.8565 24.7364 12.8521V12.8521Z" fill="#241F20"/>
</svg>
