<svg fill="none" height="20" viewBox="0 0 45 20" width="45" xmlns="http://www.w3.org/2000/svg"><g fill="#241f20"><path d="m27.3665 8.03695-.4074-.17186c-1.2089-.44065-1.9536-1.05316-2.212-1.88158-.4731-1.52464.7841-3.28724.7972-3.30486.0439-.06384.0703-.13821.0764-.21559.0062-.07738-.0081-.15502-.0414-.22506-.0373-.07252-.0939-.13318-.1635-.1752-.0697-.04201-.1495-.06375-.2307-.06277-.184 0-4.5467.09694-7.2843 3.13301-1.4455 1.60396-2.0061 3.08456-1.6732 4.43294.473 1.88602 2.5624 2.72322 2.8208 2.82012 1.4369.6341 3.0019.9194 4.5686.8329.0575-.0038.1137-.0189.1655-.0446.0517-.0256.0979-.0612.1359-.1047.038-.0436.0671-.0943.0857-.1492s.0262-.113.0225-.1708c-.0038-.0579-.0188-.1144-.0443-.1665-.0255-.052-.0609-.0985-.1042-.1368-.0433-.0382-.0937-.0675-.1483-.0862-.0545-.0187-.1122-.0263-.1697-.0225-1.4236.0703-2.8442-.189-4.1525-.758l-.0438-.022s-1.9098-.705-2.2865-2.20322c-.2584-1.03552.2366-2.2517 1.4718-3.62212 1.809-2.00495 4.4941-2.59984 5.8301-2.7761-.3986.78876-.8498 2.07105-.4687 3.30927.346 1.11484 1.2746 1.93883 2.7332 2.44998l.3855.16304c.8553.35773 1.5858.96287 2.0989 1.73875.5131.7758.7857 1.6874.7833 2.6193 0 2.8686-2.5274 3.8821-4.6912 3.8821h-5.4403c-2.1638 0-4.6912-1.0135-4.6912-3.8821.0032-.5149.1074-1.0239.3066-1.4982.0221-.0538.0335-.1115.0333-.1697-.0001-.0582-.0117-.1158-.0341-.1695s-.0552-.1023-.0964-.1432-.09-.0731-.1437-.0949c-.1069-.0438-.2267-.0434-.3334.0012-.1066.0445-.1915.1296-.236.2368-.2428.582-.3694 1.2063-.3724 1.8375 0 2.851 2.2383 4.7634 5.5673 4.7634h5.4403c3.3289 0 5.5672-1.9124 5.5672-4.7634.0075-1.1105-.3139-2.198-.9231-3.1241-.6093-.92598-1.4788-1.64854-2.4978-2.07555z"/><path d="m19.7018 15.7788c.1162.0059.2299-.035.3162-.1135.0862-.0785.1379-.1882.1438-.3051.0058-.1169-.0348-.2313-.1129-.318-.078-.0868-.1871-.1388-.3033-.1447-2.3127-.2335-2.4003-1.8507-2.4047-1.9212 0-.1169-.0462-.229-.1283-.3116-.0821-.0827-.1936-.1291-.3097-.1291-.1162 0-.2276.0464-.3098.1291-.0821.0826-.1283.1947-.1283.3116 0 0 .0833 2.4676 3.1932 2.7761z"/></g></svg>