<svg width="47" height="28" viewBox="0 0 47 28" fill="none" xmlns="http://www.w3.org/2000/svg">
<path fill-rule="evenodd" clip-rule="evenodd" d="M26.7626 9.94984H27.736C29.1438 9.94984 30.2846 11.0959 30.2846 12.4985V21.8871C30.2846 23.2949 29.1385 24.4358 27.736 24.4358H19.0486C17.6409 24.4358 16.5 23.2896 16.5 21.8871V12.4985C16.5 11.0907 17.6461 9.94984 19.0486 9.94984H20.0273V9.18053H18.2375C17.7665 9.18053 17.3844 8.7985 17.3844 8.3275V4.93629C17.3844 4.46529 17.7665 4.08325 18.2375 4.08325H28.5524C29.0234 4.08325 29.4054 4.46529 29.4054 4.93629V8.3275C29.4054 8.7985 29.0234 9.18053 28.5524 9.18053H26.7626V9.94984ZM22.6754 9.18053H20.8123H20.807V9.94984H25.9724V9.18053H25.7473C25.5328 9.18053 25.3548 9.0026 25.3548 8.78803C25.3548 8.57347 25.5328 8.39553 25.7473 8.39553H28.5472C28.5838 8.39553 28.6152 8.36413 28.6152 8.3275V4.93629C28.6152 4.89965 28.5838 4.86825 28.5472 4.86825H26.412V6.63189C26.412 6.84646 26.234 7.02439 26.0195 7.02439C25.8049 7.02439 25.627 6.84646 25.627 6.63189V4.86825H23.7848V6.63189C23.7848 6.84646 23.6069 7.02439 23.3923 7.02439C23.1778 7.02439 22.9998 6.84646 22.9998 6.63189V4.86825H21.1577V6.63189C21.1577 6.84646 20.9797 7.02439 20.7652 7.02439C20.5506 7.02439 20.3727 6.84646 20.3727 6.63189V4.86825H18.2375C18.2008 4.86825 18.1694 4.89965 18.1694 4.93629V8.3275C18.1694 8.36413 18.2008 8.39553 18.2375 8.39553H22.6754C22.8899 8.39553 23.0679 8.57347 23.0679 8.78803C23.0679 9.0026 22.8899 9.18053 22.6754 9.18053ZM19.0539 23.6455H27.7412C28.7146 23.6455 29.5049 22.8553 29.5049 21.8819V13.6917H25.4647C25.2502 13.6917 25.0722 13.5138 25.0722 13.2992C25.0722 13.0846 25.2502 12.9067 25.4647 12.9067H29.5049V12.4932C29.5049 11.5198 28.7146 10.7296 27.7412 10.7296H19.0539C18.0805 10.7296 17.2902 11.5198 17.2902 12.4932V21.8819C17.2902 22.8553 18.0805 23.6455 19.0539 23.6455ZM22.5655 20.0972H27.8355C28.0501 20.0972 28.228 20.2751 28.228 20.4897C28.228 20.7042 28.0501 20.8822 27.8355 20.8822H22.173C21.9585 20.8822 21.7805 20.7042 21.7805 20.4897V16.3501C21.7805 16.1355 21.9585 15.9576 22.173 15.9576C22.3876 15.9576 22.5655 16.1355 22.5655 16.3501V20.0972Z" fill="black"/>
</svg>
