<svg width="45" height="20" viewBox="0 0 45 20" fill="none" xmlns="http://www.w3.org/2000/svg">
<path d="M19.8533 14.3212C20.1747 14.9475 20.6642 15.4718 21.2669 15.8355C21.8696 16.1991 22.5617 16.3877 23.2655 16.3801C23.9694 16.3724 24.6572 16.1689 25.2519 15.7922C25.8465 15.4155 26.3245 14.8807 26.6322 14.2476C26.854 14.5848 27.1661 14.8529 27.5329 15.0215C27.8996 15.19 28.3064 15.2522 28.7067 15.2009C29.1071 15.1497 29.485 14.987 29.7975 14.7315C30.11 14.476 30.3444 14.1379 30.4742 13.7557C30.604 13.3735 30.6238 12.9626 30.5315 12.5696C30.4391 12.1767 30.2383 11.8176 29.9519 11.5332C29.6655 11.2488 29.305 11.0505 28.9115 10.9609C28.5179 10.8713 28.1071 10.894 27.7258 11.0264C27.8454 10.6533 27.8753 10.2572 27.8131 9.87036C27.7509 9.4835 27.5984 9.11675 27.3679 8.79988C27.1375 8.48302 26.8355 8.22496 26.4866 8.04666C26.1377 7.86836 25.7517 7.77484 25.3598 7.7737C25.0794 7.77492 24.8012 7.82229 24.5361 7.9139C24.3157 7.17112 23.8348 6.53271 23.1818 6.1157C22.5288 5.6987 21.7473 5.53104 20.9807 5.64348C20.2141 5.75592 19.5137 6.14091 19.0079 6.72787C18.5022 7.31483 18.2249 8.06444 18.227 8.83925C17.7876 8.75614 17.3356 8.76555 16.9 8.86687C16.4645 8.9682 16.0548 9.15921 15.6971 9.42772C15.3395 9.69623 15.0418 10.0364 14.8229 10.4264C14.6041 10.8164 14.469 11.2477 14.4261 11.6929C14.3833 12.1381 14.4338 12.5873 14.5743 13.0118C14.7148 13.4364 14.9423 13.827 15.2422 14.1588C15.5421 14.4905 15.9079 14.7561 16.3162 14.9385C16.7245 15.121 17.1664 15.2164 17.6136 15.2185C17.8051 15.2183 17.9962 15.2019 18.1849 15.1694" stroke="#241F20" stroke-linecap="round" stroke-linejoin="round"/>
<path d="M19.9242 14.4299C19.7778 14.134 19.6739 13.819 19.6157 13.4941C19.473 12.6919 19.6182 11.8651 20.0258 11.1597" stroke="#241F20" stroke-linecap="round" stroke-linejoin="round"/>
<path d="M27.7678 6.38914C28.5325 6.38914 29.1523 5.76927 29.1523 5.00463C29.1523 4.23999 28.5325 3.62012 27.7678 3.62012C27.0032 3.62012 26.3833 4.23999 26.3833 5.00463C26.3833 5.76927 27.0032 6.38914 27.7678 6.38914Z" stroke="#241F20" stroke-linecap="round" stroke-linejoin="round"/>
<path d="M17.8276 13.6445C17.5613 13.6047 17.3056 13.5126 17.0751 13.3736C16.8445 13.2345 16.6438 13.0512 16.4845 12.8342C16.3252 12.6172 16.2104 12.3708 16.1467 12.1092C16.0831 11.8476 16.0718 11.576 16.1136 11.3101" stroke="#241F20" stroke-linecap="round" stroke-linejoin="round"/>
</svg>
