<svg width="29" height="30" viewBox="0 0 29 30" fill="none" xmlns="http://www.w3.org/2000/svg">
<path fill-rule="evenodd" clip-rule="evenodd" d="M15.6647 5.6355C16.2242 5.6355 16.6816 6.08984 16.6816 6.65246V16.1389H12.8567C12.6065 16.1389 12.4036 16.3418 12.4036 16.5921C12.4036 16.8423 12.6065 17.0452 12.8567 17.0452H17.7859C19.2046 17.0452 20.3594 18.1959 20.3594 19.6187V23.469H4.64704V19.6187C4.64704 18.2 5.79776 17.0452 7.22056 17.0452H9.29598C9.54623 17.0452 9.7491 16.8423 9.7491 16.5921C9.7491 16.3418 9.54623 16.1389 9.29598 16.1389H8.12134V6.65246C8.12134 6.09289 8.57568 5.6355 9.1383 5.6355H15.6647ZM7.21509 16.1389V6.65246C7.21509 5.59442 8.07313 4.72925 9.1383 4.72925H15.6647C16.7227 4.72925 17.5879 5.5873 17.5879 6.65246V16.1389H17.7859C19.7041 16.1389 21.2656 17.6944 21.2656 19.6187V23.9221C21.2656 24.1724 21.0628 24.3753 20.8125 24.3753H4.19392C3.94366 24.3753 3.74079 24.1724 3.74079 23.9221V19.6187C3.74079 17.7023 5.2933 16.1419 7.21509 16.1389ZM13.4519 8.74867C14.0136 8.74867 14.4689 9.20398 14.4689 9.76563C14.4689 10.3273 14.0136 10.7826 13.4519 10.7826C12.8903 10.7826 12.4349 10.3273 12.4349 9.76563C12.4349 9.20398 12.8903 8.74867 13.4519 8.74867ZM15.3751 9.76563C15.3751 8.70347 14.5141 7.84242 13.4519 7.84242C12.3897 7.84242 11.5287 8.70347 11.5287 9.76563C11.5287 10.8278 12.3897 11.6888 13.4519 11.6888C14.5141 11.6888 15.3751 10.8278 15.3751 9.76563Z" fill="#231E20"/>
<path fill-rule="evenodd" clip-rule="evenodd" d="M25.0103 5.43616C25.0103 5.10238 24.7397 4.83179 24.4059 4.83179C24.0722 4.83179 23.8016 5.10238 23.8016 5.43616V8.23213H21.0048C20.671 8.23213 20.4004 8.50272 20.4004 8.83651C20.4004 9.17029 20.671 9.44088 21.0048 9.44088H23.8016V12.2374C23.8016 12.5712 24.0722 12.8418 24.4059 12.8418C24.7397 12.8418 25.0103 12.5712 25.0103 12.2374V9.44088H27.806C28.1398 9.44088 28.4104 9.17029 28.4104 8.83651C28.4104 8.50272 28.1398 8.23213 27.806 8.23213H25.0103V5.43616Z" fill="black"/>
</svg>
