<svg width="45" height="22" viewBox="0 0 45 22" fill="none" xmlns="http://www.w3.org/2000/svg">
<path d="M25.6533 15.1094C27.6009 15.1094 29.1788 16.6873 29.1788 18.6348" stroke="#241F20" stroke-width="0.75" stroke-linecap="round" stroke-linejoin="round"/>
<path d="M25.226 10.9429C26.288 10.9429 27.1489 10.0819 27.1489 9.0199C27.1489 7.95787 26.288 7.09692 25.226 7.09692C24.1639 7.09692 23.303 7.95787 23.303 9.0199C23.303 10.0819 24.1639 10.9429 25.226 10.9429Z" stroke="#241F20" stroke-width="0.75" stroke-linecap="round" stroke-linejoin="round"/>
<path d="M21.3799 6.66952C22.206 6.66952 22.8756 5.9999 22.8756 5.17387C22.8756 4.34785 22.206 3.67822 21.3799 3.67822C20.5539 3.67822 19.8843 4.34785 19.8843 5.17387C19.8843 5.9999 20.5539 6.66952 21.3799 6.66952Z" stroke="#241F20" stroke-width="0.75" stroke-linecap="round" stroke-linejoin="round"/>
<path d="M25.2259 3.03722C25.9044 3.03722 26.4545 2.48717 26.4545 1.80865C26.4545 1.13013 25.9044 0.580078 25.2259 0.580078C24.5474 0.580078 23.9973 1.13013 23.9973 1.80865C23.9973 2.48717 24.5474 3.03722 25.2259 3.03722Z" stroke="#241F20" stroke-width="0.75" stroke-linecap="round" stroke-linejoin="round"/>
<path d="M19.1503 16.9704C18.0414 16.2055 17.2829 14.9523 17.1205 13.6148C16.9581 12.2773 17.395 10.8788 18.2892 9.87141C18.6418 9.47506 19.1727 9.11503 19.6706 9.29985C19.974 9.4131 20.1759 9.70688 20.2923 10.0092C20.4088 10.3116 20.459 10.6363 20.5733 10.9397C20.912 11.8425 21.7794 12.4599 22.6982 12.7516C23.6169 13.0433 24.5966 13.0582 25.5592 13.0913C26.5217 13.1244 27.5067 13.1843 28.3966 13.555C29.81 14.1436 30.8356 15.5057 31.1593 17.0025C31.4819 18.4992 31.1422 20.0995 30.3698 21.421H14.6495C14.6495 21.421 12.2148 17.8817 15.2242 15.525" stroke="#241F20" stroke-width="0.75" stroke-linecap="round" stroke-linejoin="round"/>
</svg>
