<svg width="18" height="16" viewBox="0 0 18 16" fill="none" xmlns="http://www.w3.org/2000/svg">
<rect x="0.25" y="0.75" width="17.5" height="14.5" rx="2.75" stroke="#CCCCCC" stroke-width="0.5"/>
<path d="M4.10859 11H5.40859V7.98H6.08859L7.96859 11H9.41859L7.47859 7.87C8.32859 7.61 8.78859 6.91 8.78859 5.99C8.78859 4.83 8.05859 4 6.65859 4H4.10859V11ZM5.40859 6.78V5.2H6.66859C7.13859 5.2 7.48859 5.42 7.48859 5.99C7.48859 6.56 7.13859 6.78 6.66859 6.78H5.40859ZM9.95672 11H11.2567L12.2867 9.36L13.3167 11H14.6167L12.9467 8.31L14.4067 5.96H13.1067L12.2867 7.27L11.4667 5.96H10.1667L11.6267 8.31L9.95672 11Z" fill="#808080"/>
</svg>
