<svg width="45" height="20" viewBox="0 0 45 20" fill="none" xmlns="http://www.w3.org/2000/svg">
<path d="M16.3335 13.0169C16.9594 10.3953 19.91 5.35596 19.91 5.35596C19.91 5.35596 23.5974 11.6649 23.5974 13.8359C23.5974 16.0068 21.9451 17.7701 19.91 17.7701C19.0691 17.7514 18.259 17.4502 17.6102 16.9149C16.9613 16.3796 16.5116 15.6415 16.3335 14.8194" stroke="#241F20" stroke-linecap="round" stroke-linejoin="round"/>
<path d="M19.9064 15.9352C19.3771 15.9352 18.8694 15.7249 18.4952 15.3506C18.1209 14.9764 17.9106 14.4687 17.9106 13.9395" stroke="#241F20" stroke-linecap="round" stroke-linejoin="round"/>
<path d="M24.3556 6.16416C24.928 4.81273 25.585 3.49873 26.3227 2.22998C26.3227 2.22998 28.6653 6.23569 28.6653 7.61623C28.6865 8.25884 28.4517 8.88357 28.0124 9.35306C27.5731 9.82254 26.9653 10.0983 26.3227 10.1198C25.7891 10.1077 25.2752 9.91613 24.8638 9.57612C24.4524 9.23611 24.1676 8.76744 24.0552 8.2457" stroke="#241F20" stroke-linecap="round" stroke-linejoin="round"/>
<path d="M26.4513 8.48518C26.3233 8.48518 26.1965 8.4599 26.0782 8.41079C25.96 8.36168 25.8526 8.2897 25.7622 8.19899C25.6718 8.10827 25.6002 8.00061 25.5515 7.88217C25.5029 7.76373 25.4781 7.63684 25.4785 7.50879" stroke="#241F20" stroke-linecap="round" stroke-linejoin="round"/>
</svg>
