<svg width="45" height="20" viewBox="0 0 45 20" fill="none" xmlns="http://www.w3.org/2000/svg">
<path d="M28.5305 18.1876C28.3888 18.1876 28.2596 18.0876 28.2263 17.9417C28.1638 17.6584 27.6346 16.9751 27.2805 16.5834C27.243 16.5417 27.218 16.4959 27.2096 16.4417L25.8763 10.5292L24.9721 10.7334C24.8055 10.7709 24.6346 10.6667 24.5971 10.4959L24.4263 9.73341V17.8751C24.4263 18.0459 24.2846 18.1876 24.1138 18.1876H20.5055C20.5055 18.1876 20.4763 18.1876 20.4596 18.1876H16.8138C16.4013 18.1876 16.068 17.8501 16.068 17.4417V10.2959C15.7013 10.2459 15.418 9.93341 15.418 9.55425V8.55008C15.418 8.17091 15.7013 7.85841 16.068 7.80841V7.43341C16.068 7.02091 16.4055 6.68758 16.8138 6.68758H19.4471C19.5013 6.28341 19.6805 5.92091 19.943 5.63758H19.743C19.5721 5.63758 19.4305 5.49591 19.4305 5.32508V1.97925C19.4305 1.80841 19.5721 1.66675 19.743 1.66675H24.1138C24.2846 1.66675 24.4263 1.80841 24.4263 1.97925V5.31675C24.4263 5.48758 24.2846 5.62925 24.1138 5.62925H23.9138C24.2305 5.97091 24.4263 6.43341 24.4263 6.93341V8.75841C24.4513 8.74175 24.4805 8.72925 24.5138 8.72091L25.1805 8.55425L24.8846 7.23758C24.7471 6.62925 25.1721 6.01258 25.8305 5.86675C26.4888 5.71675 27.1305 6.09175 27.268 6.70008L27.568 8.02925L28.2305 7.87925C28.3971 7.84175 28.5638 7.94591 28.6055 8.11675L28.9221 9.51258C28.9388 9.59175 28.9221 9.67925 28.8805 9.75008C28.8388 9.82091 28.7638 9.87091 28.6846 9.88758L27.7805 10.0917L29.1138 16.0084C29.1263 16.0626 29.1221 16.1167 29.1096 16.1667C28.9555 16.6667 28.7721 17.5042 28.8388 17.8001C28.8763 17.9667 28.7721 18.1376 28.6013 18.1751C28.5805 18.1792 28.5555 18.1834 28.5305 18.1834V18.1876ZM21.243 17.5626H23.8055V6.93341C23.8055 6.21675 23.2221 5.63341 22.5055 5.63341C22.3346 5.63341 22.193 5.49175 22.193 5.32091C22.193 5.15008 22.3346 5.00841 22.5055 5.00841C22.5971 5.00841 22.6888 5.01675 22.7805 5.02925C22.818 5.01258 22.8596 5.00425 22.9055 5.00425H23.8055V2.29175H20.0596V5.00425H21.2138C21.2388 5.00425 21.2596 5.00425 21.2846 5.01258C21.3096 5.01258 21.3346 5.01258 21.3596 5.01258C21.5305 5.01258 21.6721 5.15425 21.6721 5.32508C21.6721 5.49591 21.5305 5.63758 21.3596 5.63758C20.7305 5.63758 20.2055 6.08758 20.0846 6.68341H20.5055C20.918 6.68341 21.2513 7.02091 21.2513 7.42925V7.80425C21.618 7.85425 21.9013 8.16675 21.9013 8.54591V9.55008C21.9013 9.92925 21.618 10.2417 21.2555 10.2917V17.4376C21.2555 17.4792 21.2555 17.5209 21.243 17.5626ZM16.693 10.2959V17.4334C16.693 17.5001 16.7471 17.5542 16.8138 17.5542H20.5013C20.568 17.5542 20.6221 17.5001 20.6221 17.4334V10.2959H20.2888C20.118 10.2959 19.9763 10.1542 19.9763 9.98341C19.9763 9.81258 20.118 9.67091 20.2888 9.67091H21.1471C21.2138 9.67091 21.268 9.61675 21.268 9.54591V8.54175C21.268 8.47508 21.2138 8.42091 21.1471 8.42091H16.1638C16.0971 8.42091 16.043 8.47508 16.043 8.54175V9.54591C16.043 9.61258 16.0971 9.67091 16.1638 9.67091H18.5513C18.7221 9.67091 18.8638 9.81258 18.8638 9.98341C18.8638 10.1542 18.7221 10.2959 18.5513 10.2959H16.693ZM27.8013 16.2251C27.9096 16.3459 28.1013 16.5751 28.2971 16.8334C28.3596 16.5167 28.4388 16.2251 28.4846 16.0709L27.168 10.2334L26.4846 10.3876L27.8013 16.2209V16.2251ZM24.9596 9.25841L25.1388 10.0542L28.2388 9.35841L28.0596 8.57091L27.3971 8.72091C27.2305 8.75841 27.0638 8.65425 27.0221 8.48341L26.6513 6.85008C26.5888 6.57925 26.2763 6.41675 25.9596 6.48758C25.6388 6.55841 25.4263 6.84175 25.4888 7.11258L25.7805 8.41258L25.9763 8.36258C26.143 8.32091 26.3138 8.42091 26.3555 8.59175C26.3971 8.75841 26.293 8.92925 26.1263 8.97091L24.9555 9.26258L24.9596 9.25841ZM16.693 7.79591H20.6221V7.42925C20.6221 7.36258 20.568 7.30841 20.5013 7.30841H16.8138C16.7471 7.30841 16.693 7.36258 16.693 7.42925V7.79591Z" fill="#231E20"/>
</svg>
