<svg width="45" height="20" viewBox="0 0 45 20" fill="none" xmlns="http://www.w3.org/2000/svg">
<g clip-path="url(#clip0_3942_2772)">
<path d="M30.6074 7.7244H29.9937C29.9937 4.09914 27.239 3.06757 27.1225 3.02547C27.0559 3.00147 26.9841 2.99275 26.9132 3.00008C26.8423 3.0074 26.7743 3.03054 26.7149 3.06756C26.6553 3.10538 26.6063 3.1561 26.572 3.21546C26.5377 3.27482 26.5191 3.34107 26.5178 3.40861C26.4896 3.67593 26.4021 3.93471 26.2609 4.16825C26.1197 4.40179 25.928 4.6049 25.698 4.76442C24.8022 5.39178 23.2434 5.45492 21.1918 4.94965C18.9521 4.39386 17.259 4.5286 16.1839 5.37071C15.8218 5.66467 15.5315 6.02866 15.3328 6.43778C15.1342 6.8469 15.0318 7.2915 15.0327 7.74123H14.4101C14.2913 7.74123 14.1774 7.7856 14.0934 7.86456C14.0094 7.94353 13.9622 8.05062 13.9622 8.16229V14.9749C13.9622 15.5158 14.1904 16.0346 14.5969 16.4174C15.0033 16.8003 15.5548 17.0159 16.1302 17.017H28.9008C29.477 17.017 30.0295 16.8019 30.437 16.4189C30.8444 16.0359 31.0733 15.5165 31.0733 14.9749V8.14545C31.0733 8.08871 31.0612 8.03255 31.0376 7.98034C31.0139 7.92812 30.9793 7.88094 30.9358 7.84161C30.8923 7.80229 30.8408 7.77163 30.7843 7.75149C30.7279 7.73135 30.6677 7.72213 30.6074 7.7244ZM30.1595 14.9581C30.1583 15.276 30.0234 15.5806 29.7843 15.8054C29.5451 16.0302 29.2211 16.157 28.8829 16.1581H16.1078C15.77 16.157 15.4464 16.03 15.208 15.8051C14.9695 15.5802 14.8356 15.2756 14.8356 14.9581V8.56651H24.7887C24.9075 8.56651 25.0215 8.52214 25.1055 8.44318C25.1895 8.36421 25.2367 8.25712 25.2367 8.14545C25.2367 8.03378 25.1895 7.92669 25.1055 7.84773C25.0215 7.76877 24.9075 7.7244 24.7887 7.7244H15.9107C15.9114 7.39859 15.9856 7.07661 16.1284 6.77976C16.2713 6.4829 16.4795 6.2179 16.7393 6.00229C17.5725 5.37492 19.0238 5.29073 20.9455 5.76231C23.3195 6.34757 25.0978 6.23387 26.2356 5.42966C26.7205 5.08577 27.0804 4.60924 27.2658 4.06545C27.9332 4.48651 29.0576 5.54756 29.0844 7.7244H27.884C27.7652 7.7244 27.6512 7.76877 27.5672 7.84773C27.4832 7.92669 27.436 8.03378 27.436 8.14545C27.436 8.25712 27.4832 8.36421 27.5672 8.44318C27.6512 8.52214 27.7652 8.56651 27.884 8.56651H30.1595V14.9581Z" fill="#241F20"/>
<path d="M24.8157 14.0145H17.6487C17.5299 14.0145 17.416 13.9702 17.332 13.8912C17.248 13.8123 17.2008 13.7052 17.2008 13.5935V11.6735C17.2008 11.5618 17.1536 11.4547 17.0696 11.3758C16.9856 11.2968 16.8717 11.2524 16.7529 11.2524C16.6341 11.2524 16.5201 11.2968 16.4361 11.3758C16.3521 11.4547 16.3049 11.5618 16.3049 11.6735V13.5935C16.3049 13.9285 16.4465 14.2498 16.6985 14.4867C16.9505 14.7236 17.2923 14.8567 17.6487 14.8567H24.8157C24.9345 14.8567 25.0484 14.8123 25.1324 14.7333C25.2164 14.6544 25.2636 14.5473 25.2636 14.4356C25.2636 14.3239 25.2164 14.2168 25.1324 14.1379C25.0484 14.0589 24.9345 14.0145 24.8157 14.0145Z" fill="#241F20"/>
</g>
<defs>
<clipPath id="clip0_3942_2772">
<rect width="17.1111" height="14" fill="white" transform="translate(13.9443 3)"/>
</clipPath>
</defs>
</svg>
