<svg width="45" height="20" viewBox="0 0 45 20" fill="none" xmlns="http://www.w3.org/2000/svg">
<path d="M22.5023 0C20.1288 0 18.1983 2.13746 18.1983 4.77237V9.71333C18.1983 9.82514 18.2423 9.93239 18.3207 10.0115C18.399 10.0905 18.5053 10.1349 18.6162 10.1349C18.727 10.1349 18.8333 10.0905 18.9116 10.0115C18.99 9.93239 19.034 9.82514 19.034 9.71333V4.76815C19.034 2.6012 20.5885 0.839001 22.5023 0.839001C24.4161 0.839001 25.9664 2.6012 25.9664 4.76815V7.47896L18.5618 11.8002L18.5033 11.855C18.413 11.8805 18.3337 11.936 18.2784 12.0124C18.223 12.0889 18.1948 12.182 18.1983 12.2766V15.2277C18.1983 17.8584 20.1288 20 22.5023 20C24.8758 20 26.8022 17.8584 26.8022 15.2277V4.76815C26.8022 2.13746 24.8716 0 22.5023 0ZM22.5023 19.1484C20.5885 19.1484 19.034 17.3862 19.034 15.2192V12.5042L25.9664 8.45701V15.2024C25.9664 17.3862 24.412 19.1484 22.5023 19.1484V19.1484Z" fill="#241F20"/>
<path d="M24.2574 12.6436C24.1466 12.6436 24.0403 12.688 23.9619 12.767C23.8836 12.8461 23.8395 12.9533 23.8395 13.0652C23.9064 14.3805 23.8938 15.8054 23.2921 16.4041C23.1363 16.5408 22.9526 16.6411 22.7539 16.6979C22.5553 16.7548 22.3467 16.7667 22.143 16.7329C22.0881 16.7295 22.033 16.737 21.981 16.7551C21.929 16.7732 21.8811 16.8014 21.84 16.8383C21.7988 16.8751 21.7653 16.9197 21.7412 16.9697C21.7172 17.0196 21.7032 17.0738 21.7 17.1292C21.6932 17.2404 21.7302 17.3498 21.803 17.4335C21.8758 17.5173 21.9785 17.5685 22.0886 17.5761H22.3143C22.6003 17.5907 22.8862 17.5467 23.1548 17.4467C23.4234 17.3467 23.6691 17.1928 23.8771 16.9943C24.7129 16.1511 24.7547 14.5913 24.6753 13.0103C24.662 12.9083 24.6122 12.8146 24.5352 12.7471C24.4582 12.6795 24.3594 12.6427 24.2574 12.6436Z" fill="#241F20"/>
</svg>
